<?xml version="1.0" standalone="no"?>
<!DOCTYPE svg PUBLIC "-//W3C//DTD SVG 20010904//EN"
 "http://www.w3.org/TR/2001/REC-SVG-20010904/DTD/svg10.dtd">
<svg version="1.0" xmlns="http://www.w3.org/2000/svg"
 width="150.000000pt" height="150.000000pt" viewBox="0 0 150.000000 150.000000"
 preserveAspectRatio="xMidYMid meet">
<metadata>
Created by potrace 1.11, written by Peter Selinger 2001-2013
</metadata>
<g transform="translate(0.000000,150.000000) scale(0.100000,-0.100000)"
fill="#000000" stroke="none">
<path d="M697 1134 c-1 -1 -20 -5 -41 -8 -83 -13 -170 -65 -270 -161 -58 -55
-121 -95 -150 -95 -8 0 -18 -5 -22 -11 -9 -15 85 -4 133 16 20 9 93 53 162 99
69 46 146 90 171 98 94 30 212 7 299 -59 25 -19 31 -21 21 -8 -61 79 -149 121
-271 129 -16 1 -31 1 -32 0z"/>
<path d="M708 1045 c-218 -57 -290 -326 -129 -482 48 -47 48 -68 0 -41 -29 17
-30 17 -16 -3 21 -29 86 -75 140 -98 35 -15 65 -19 129 -18 117 3 163 27 308
165 55 53 116 90 178 108 l47 14 -65 -4 c-77 -6 -102 -17 -236 -108 -56 -37
-104 -68 -108 -68 -14 0 -4 31 17 51 l22 21 -35 -17 c-96 -49 -188 -16 -242
86 -24 47 -31 126 -15 174 15 45 64 103 103 121 24 11 51 15 88 12 58 -5 92
-26 133 -80 33 -46 29 -20 -6 33 -59 88 -52 84 -156 84 -52 0 -95 3 -95 7 0 4
21 13 46 19 27 7 42 15 36 21 -14 14 -93 16 -144 3z"/>
</g>
</svg>
